<svg width="109" height="96" viewBox="0 0 109 96" fill="none" xmlns="http://www.w3.org/2000/svg">
<path d="M42.6667 3.0792C45.9669 1.17378 50.0331 1.17378 53.3333 3.0792L84.2359 20.9208C87.5362 22.8262 89.5692 26.3476 89.5692 30.1584V65.8416C89.5692 69.6524 87.5362 73.1738 84.2359 75.0792L53.3333 92.9208C50.0331 94.8262 45.9669 94.8262 42.6667 92.9208L11.7641 75.0792C8.46384 73.1738 6.43078 69.6524 6.43078 65.8416V30.1584C6.43078 26.3476 8.46384 22.8262 11.7641 20.9208L42.6667 3.0792Z" fill="#246BFD"/>
<path d="M44.6666 31.3335V61.3335" stroke="white" stroke-width="3.33333" stroke-miterlimit="10" stroke-linecap="round" stroke-linejoin="round"/>
<path opacity="0.5" d="M38 41.3335V54.6668" stroke="white" stroke-width="3.33333" stroke-miterlimit="10" stroke-linecap="round" stroke-linejoin="round"/>
<path opacity="0.3" d="M31.3334 46.3335V49.6668" stroke="white" stroke-width="3.33333" stroke-miterlimit="10" stroke-linecap="round" stroke-linejoin="round"/>
<path d="M51.3334 34.6665V64.6665" stroke="white" stroke-width="3.33333" stroke-miterlimit="10" stroke-linecap="round" stroke-linejoin="round"/>
<path opacity="0.3" d="M58 41.3335V54.6668" stroke="white" stroke-width="3.33333" stroke-miterlimit="10" stroke-linecap="round" stroke-linejoin="round"/>
<path opacity="0.3" d="M64.6666 46.3335V49.6668" stroke="white" stroke-width="3.33333" stroke-miterlimit="10" stroke-linecap="round" stroke-linejoin="round"/>
<circle cx="89" cy="24" r="20" fill="url(#paint0_linear_201_9720)"/>
<path d="M99 20.0784L96.0834 17.3333L87.75 25.1764L83.5834 21.2548L80.6667 23.9999L87.75 30.6666L99 20.0784Z" fill="white"/>
<defs>
<linearGradient id="paint0_linear_201_9720" x1="69" y1="4" x2="69" y2="44" gradientUnits="userSpaceOnUse">
<stop stop-color="#9ADB7F"/>
<stop offset="1" stop-color="#6EA95C"/>
</linearGradient>
</defs>
</svg>
